<svg id="Layer_1" data-name="Layer 1" xmlns="http://www.w3.org/2000/svg" viewBox="0 0 1200 1200"><path d="M1108.72,607.55a14.76,14.76,0,0,1-.55-3c.12-6.69-.92-13.26-1.75-19.87a240.24,240.24,0,0,0-20.56-70.89c-11.17-24.2-26-46.1-42.52-66.88-1.67-2.1-3.5-4.11-6-5.12-3.66-1.46-5.27-4.28-6.48-7.86A451,451,0,0,0,997.51,359a458.94,458.94,0,0,0-273.8-218,442.68,442.68,0,0,0-102.14-17.21,493.3,493.3,0,0,0-56.77.45,456.88,456.88,0,0,0-165.15,43.18c-1.29.61-2.48,1.71-4.11,1.28-2.65-9.06-2.63-9.08-10.26-14.42a3.07,3.07,0,0,1-1.51-3.36c1-5.61-1.69-9.68-5.53-13.28a7.47,7.47,0,0,0-9.36-1.28,38.81,38.81,0,0,0-9.61,7.09c-1.64,1.64-3.35,3.22-5.14,4.94a3.11,3.11,0,0,1-.23-2.21,117.7,117.7,0,0,0-2-29.15c-2.6-13.07-8.15-25-15.2-36.21-10-15.85-24.1-26.23-42.75-29.9A27.9,27.9,0,0,1,291,50H273.28a107.44,107.44,0,0,1-22.17,3.7C229.19,54.78,212,64.17,201.75,84.43c-1.26,2.5-2.48,5-3.69,7.58-.44.92-1,1.86-.12,3.16,5.37-2.76,7.56,3.71,12.36,3.62-.71,2.38-2.22,3.2-3.31,4.31a28,28,0,0,0-7.81,16.54,6.76,6.76,0,0,0,.08,3.52c1.44,3.23.72,6.34-.27,9.49a22.7,22.7,0,0,0,1.69,18.45c.87,1.59,1.83,3.21,3.68,3.64,2.09.49,2.71,2,3.3,3.72a23.7,23.7,0,0,0,8,11c2.8,2.26,4.71,2,6.57-1.08,5.35-9,11.16-17.8,15.73-27.27,1.91-4,1.87-4.08,5.84-3,8.14,2.3,14.57-.2,19.46-6.88,3.32-4.54,6.42-9.23,9.68-13.81a25.9,25.9,0,0,1,7.2-7.14c3.07-1.92,5.95-2.07,9.07.07,11,7.51,17.14,17.67,17.84,31.08,1.31,25-4.66,48.06-17.43,69.53-10.17,17.1-22.26,32.77-35.1,47.91a9.31,9.31,0,0,1-5.11,3.32c-8.48,1.88-14.59,6.86-18.74,14.38a8.56,8.56,0,0,1-.82,1.05c-1-.47-.45-1.24-.37-1.84.3-2.19-.92-3-2.82-3a18.23,18.23,0,0,0-10.46,3.15c-7.2,4.74-10.6,11.74-11.43,20.11a31.38,31.38,0,0,0,1.06,12.75c.93,2.9.22,5.06-1.68,7.29-4.6,5.41-9,11-13.53,16.45a2.68,2.68,0,0,1-1.9,1.31c-.87-1-.19-2.11.12-3.16.68-2.26,1.58-4.48,2.06-6.78a7.11,7.11,0,0,0-6.58-8.67,11.65,11.65,0,0,0-3.54.14c-11.91,2.78-22.55,7.41-27.79,19.65a6.37,6.37,0,0,1-.78,1.09c-1.85-5-2.82-5.21-6.9-1.68a30.82,30.82,0,0,0-7.18,9.5c-5.35,10.48-6.77,21.45-5.19,33.15a116,116,0,0,1-1.72,39.7,66,66,0,0,1-4.52,12.95c-14.19,32.13-23.54,65.67-29.38,100.23a316.16,316.16,0,0,0-4.67,41.4c-.09,2.33-.2,4.75-1.37,6.91v18.64a11,11,0,0,1,1.34,5.56A148.41,148.41,0,0,0,95.53,624a247.39,247.39,0,0,0,26.53,75,317.25,317.25,0,0,0,41.09,57.19c3.14,3.52,5.79,7.71,10,10,3.93,2.17,5.94,5.45,7.67,9.29a422.29,422.29,0,0,0,32.38,58.09,459,459,0,0,0,266.64,191.93,433.24,433.24,0,0,0,91.44,14.32c25.56,1.16,51.15.85,76.66-2.16a476.7,476.7,0,0,0,76.91-15.37,418.71,418.71,0,0,0,41.1-14.16c2.32-.94,4.36-1.28,6.75-.08a21.06,21.06,0,0,0,9.93,2c1.37,0,2.83-.32,4.44.48-2.17,1.73-4,3.16-5.85,4.67a11.62,11.62,0,0,0-4.05,7.17c-1.29,7.38.67,12.19,7.16,16.13,1.89,1.14,2.79,2.11,2.22,4.5-1.21,5.09.8,9.26,4.35,12.84,3.36,3.39,6,4,10.4,2a45.06,45.06,0,0,0,11.59-8.11c.94-.85,1.58-2.15,3-2.28.13.21.28.34.27.45-.05.88-.12,1.76-.21,2.63-1,10.77-1.39,21.53.46,32.26,1.37,7.93,4.54,15.29,7.19,22.82a68.61,68.61,0,0,0,7,13.86c9.24,14.57,21.71,24.86,38.69,29.17,1.43.36,2.79,1,4.18,1.44h24c3.58-1.93,7.41-1.58,11.26-1.35,22.28,1.31,40.69-5.77,53.42-24.91,2-3,3.65-6.09,5.4-9.18.49-.86,1.17-1.75.52-3.23-2.7,1.23-4.74,0-6.78-1.9a38.14,38.14,0,0,0-5.07-3.37c.69-1.69,2.17-2.27,3.22-3.25a30.39,30.39,0,0,0,8.68-14.2c.58-2,1.06-4.15.4-6.12-.92-2.79-.14-5.19.77-7.73,2-5.68,3.1-11.45.85-17.34-1.06-2.75-2-5.67-5.42-6.48-1.5-.34-1.4-1.75-1.65-2.86a24,24,0,0,0-7.65-12.22c-2.78-2.54-4.49-2.47-6.53.6-5.94,9-12.76,17.43-18,26.92-1.63,3-1.7,3.11-4.77,2-9.33-3.52-16-.65-21.64,6.24-3.55,4.35-7,8.76-10.61,13.1a23.48,23.48,0,0,1-2.83,2.81c-6.49,5.58-10.4,4.75-15.51.1-9.78-8.9-14-20-13.28-33a123.78,123.78,0,0,1,23.67-67.25,370.9,370.9,0,0,1,36.5-42.85c1.68-1.72,3.44-3.28,5.93-3.63,8.78-1.26,15.31-5.87,19.94-13.34a7.16,7.16,0,0,1,.59-.68c1,.51.43,1.25.32,1.83-.41,2.14.62,3,2.6,3.17a18.46,18.46,0,0,0,11.47-2.67c8.08-5.06,11.61-12.74,12.42-21.89a30.28,30.28,0,0,0-.54-9.72,7,7,0,0,1,2.15-7.2c4.7-4.71,9.17-9.65,13.76-14.47,1-1,1.79-2.26,3.77-2.93-.78,3.8-2.58,6.72-3.58,9.89-1.09,3.45-.29,6.31,2.27,8.34a7.18,7.18,0,0,0,5.41,1.53c12.66-1.43,24.09-5.07,30.57-17.39a13.74,13.74,0,0,1,1-1.48c0-.08.25-.07.39-.1,1.06,5.23,2.27,5.65,6.78,2.28a26.65,26.65,0,0,0,7-8c6-10.32,8.54-21.19,8.06-33.43-.7-17.76,1-35.36,9.61-51.7,20.24-38.51,33.78-79.35,41.58-122.14,1.59-8.73,2.52-17.56,4.07-26.29.59-3.33-.35-6.81.81-10.12Zm-65.8-137.39c7.51,15.59,15.27,31,20.93,47.47a139.38,139.38,0,0,1,6.76,61.64,249,249,0,0,1-8.3,43.06,79.13,79.13,0,0,1-6.44,16c-1,1.91-2.08,3.86-4.3,5.14a470.85,470.85,0,0,0-10.26-174.39C1042.6,468.71,1042.67,469.65,1042.92,470.16Zm31,61.8c-.15-.72-.28-1.44-.4-2.17,0-.12.09-.26.34-.9a106.85,106.85,0,0,1,5.18,17.52,149,149,0,0,1,3.22,43.63c-.79,10-1.53,20.07-3.78,29.89-5.53,24.13-16.91,44.92-35.33,61.77-21.39,19.57-46.1,33.48-73,43.72a180,180,0,0,1-39.9,10.16c-4.42.6-8.85.52-13.28.71-12.74.57-25.35,2-37.65,5.59A99.58,99.58,0,0,0,853.75,753c-2.68,1.69-3.33,1.31-3.33-1.76a48.25,48.25,0,0,1,1.67-11.83,7.55,7.55,0,0,1,6.44-5.91,44.53,44.53,0,0,1,10.16-.74c10.71.37,21.23-1.36,31.75-2.87,9.07-1.29,18-3.28,27-4.95a9.47,9.47,0,0,0,4.1-1.52c-1.8-1.3-3.54-.68-5.1-.47-4.55.59-9.06,1.47-13.6,2a241.28,241.28,0,0,1-34.5,2.18,2.22,2.22,0,0,1-1.18-.38c27.33-4.95,55.34-6.27,82.67-15.31-2-1.71-3.48-1.12-4.81-.9-14.58,2.43-29.12,5.12-43.75,7.28-12.57,1.85-25.1,4.09-37.8,5a13.71,13.71,0,0,1-5.67-.25c-.65-1.13.2-1.71.79-2.28a41.84,41.84,0,0,1,16.4-9.43,15.31,15.31,0,0,1,7.06-.06c13.54,2.1,27.12,1.73,40.71.65,1.57-.12,3.29.12,4.46-1.34-.18-1-.92-1.17-1.66-1.17a328.77,328.77,0,0,1-38-2.13c-4.42-.49-8-1.94-10.53-5.59-1-1.45-2.22-2.78-3.2-4.25-2.24-3.37-2-5.84.85-8.74,4.57-4.58,10.28-6.89,16.6-7.69,10.91-1.39,21.84-.82,32.78-.56,18,.44,35.77-1.32,52.49-8.82,3.82-1.72,5.1-2.62,7.08-4.92-.93-1.11-1.89-.3-2.76,0-8.88,3.41-18.18,5.2-27.42,7.24a15.12,15.12,0,0,1-1.75.27c-1.65.17-2.64-.33-2.21-2.23a3.11,3.11,0,0,0,.07-.44c.12-4.94-1.86-7.18-6.9-7.94-3.8-.56-7.66-.68-11.41-1.63a29.37,29.37,0,0,1-8.61-3.47c-8-5.08-10.84-9.28-7.11-20.24,3-8.67,9.11-15.09,16.25-20.63a28.23,28.23,0,0,1,17.7-6.06,49.31,49.31,0,0,1,12.29,1.51,101.75,101.75,0,0,1,24.62,9.94,21,21,0,0,1,6.13,5.7,68.74,68.74,0,0,1,11.13,20.59c.6,1.73.83,3.71,2.86,4.79a70.48,70.48,0,0,0-11.6-30c1.1-1.57,2.4-1.15,3.48-1,7.88,1,14.6,3.67,17.83,11.78,1.09,2.74,2.6,5.32,3.9,8a29.1,29.1,0,0,0,4.18,6.26c4.89,5.64,11.76,6.54,17.92,2.41a25.77,25.77,0,0,0,7.39-8.16c5-8,7.89-16.88,10.12-25.94a263.52,263.52,0,0,0,7.43-47.25A143.18,143.18,0,0,0,1073.92,532ZM937.16,738.62c-.19-.36-1-.39-1.53-.56h-.07c-1.36.86-2.68,1.78-4.08,2.56a115.91,115.91,0,0,0-20.87,15.66,71.77,71.77,0,0,1-7.94,6.62c-1.14-1.64-.35-3,.17-4.25a51,51,0,0,1,5.42-9.63c.58-.85,1.13-1.73,1.63-2.63a1.29,1.29,0,0,0-.09-1.64,1.35,1.35,0,0,0-1.63-.08c-6.07,2.69-11.52,6.08-14.26,12.55-.23.54-.42,1.11-.69,1.63-1,1.87-.43,5-3.09,5.44-4.18.61-8.56,1.17-12.51-1.21-1.67-1-2.06-2.4-.86-4.11A21.31,21.31,0,0,1,881,754.5a95.89,95.89,0,0,1,21.43-12.34,39.4,39.4,0,0,1,16.37-2.93c5.62.09,11.14-1,16.74-1.16l0,0h0c5.59-1.32,11.22-2.49,16.76-4,26.4-7.08,50.58-18.91,73.09-34.28.93-.63,1.66-1.63,3.9-1.86-4.58,3.78-8.43,7.11-12.45,10.24a238.67,238.67,0,0,1-51.58,30.9,16.47,16.47,0,0,1-6.38,1.61,17.79,17.79,0,0,0-13.3,6.07c-6.18,6.64-12.92,12.56-21.31,16.36a35.45,35.45,0,0,1-16.33,3.4,2.79,2.79,0,0,1-2.26-.77c.49-1.68,2-2.7,3.23-3.83,8.41-7.66,16.57-15.63,26.69-21.14C936.46,740.36,937.94,740.08,937.16,738.62Zm-64.49,19.29a8,8,0,0,1-6.36,3.43,29.08,29.08,0,0,1-13-2.15c-1.32-.52-1.48-1.34-.33-2.28a11.74,11.74,0,0,1,1.08-.77c13.21-8.58,27.87-12.9,43.36-14.88a108.46,108.46,0,0,0-19,11.25A26,26,0,0,0,872.67,757.91ZM944.86,770a26.09,26.09,0,0,1,4.43-12.39c5.07-7.42,11.08-13.43,19.66-17.19a235.87,235.87,0,0,0,64.8-42.8c4.68-4.3,9-9,13.66-13.33a158.32,158.32,0,0,1-13.18,18.22C1021.72,718,1008.56,733,994.94,747.6S967.33,776,953.17,789.82c-4.12,4-5.11,3.75-6.74-1.84A47.59,47.59,0,0,1,944.86,770ZM359,152.89c-.83,2.81-2.24,4.69-3.32,6.72s-2.24,4.11-3.46,6.36c1.78.68,2.45-.43,3.12-1.26a83.83,83.83,0,0,0,8-12.21,34.7,34.7,0,0,1,7.67-9.69c2.07-1.79,2.57-1.73,4.43.1a8.46,8.46,0,0,1,2.2,9c-2.31,7.54-5.22,14.76-11.45,20.15C363,174.87,360,178,356.91,181a3.2,3.2,0,0,0-1.38,3.13c4.57-1.25,7.68-4.33,11.49-6.22-5.54,6.07-12.93,10.17-18.67,16.65,2.52,1,3.68-.46,4.92-1.3,11.4-7.82,21.83-16.71,30.39-27.66.85-1.09,1.44-3.11,3.16-2.65,2.13.58,1.75,2.81,1.9,4.53a8.47,8.47,0,0,1-3.23,7.84c-1.74,1.38-3.42,2.83-5.2,4.14-12,8.89-23.83,18-36.3,26.26-1.52,1-3.36,1.88-3.82,4.07,1.83,1,2.94-.32,4.13-1,9.35-5.4,18.77-10.66,28.35-15.64,7-3.66,14.54-4.43,22.4-4-9.28,5.13-18.2,10.74-27.08,16.43-8.72,5.59-17.64,11-25.09,19.56,2.76.39,3.71-.92,4.82-1.72a322.7,322.7,0,0,1,46.64-28.19c1.62-.78,3.42-2.68,5.23-1.29s1.49,4.08,1.13,6.24c-1.22,7.35-5.42,13-10.6,18a33.49,33.49,0,0,1-12.38,7.58,287.29,287.29,0,0,1-31.62,8.7A76.52,76.52,0,0,0,316.94,248c-4,3-8,6-12.38,8.75.85-1.11,1.69-2.22,2.55-3.33A252,252,0,0,0,346.78,181a78.29,78.29,0,0,0,3.14-12C350.67,164.8,355.2,156.72,359,152.89Zm-15.18-44.46a68.45,68.45,0,0,1,3.86,20.85c.64,14.06.44,28.09-3.19,41.84-.26,1-.67,2.19-.35,3,1.28,3.42-.21,6.39-1.3,9.39a246.82,246.82,0,0,1-40.27,71c-3.7,4.58-7.22,9.35-12.12,12.85-2.07,1.48-3.22,3.81-4.34,6.09-2.23,4.52-3.65,9.36-5.5,14-.8,2-1.44,4.19-4,5.86-.87-2.93.27-5.18.32-7.47.16-7.07,2.86-12.77,7.49-18.27a352.57,352.57,0,0,0,33.47-46.88c8.89-14.9,16.6-30.35,20.73-47.35a149.08,149.08,0,0,0,3.91-39.14,56.65,56.65,0,0,0-10.3-32c-.41-.57-1-1.1-.74-2A13,13,0,0,1,343.77,108.43ZM271.82,265.09c-2-1.16-4.18-2.11-6.92-3.47,2.92-2.95,5.42-5.44,7.88-8,15.68-16.12,28.9-34,38.37-54.47,8.49-18.37,13.15-37.56,13-57.9a48.33,48.33,0,0,0-7.49-25.59A102.42,102.42,0,0,0,307,103c-1.75-2-1.52-2.92.4-4.35,1-.72,1.74-.93,2.61.2,3.71,4.87,8.58,5.13,13.95,3.44,3.83-1.21,3.86-1.19,6.16,2,6.82,9.51,9.27,20.37,9.48,31.8a144.16,144.16,0,0,1-19.13,74.66c-11.59,20.55-25.48,39.46-40.2,57.81a21.24,21.24,0,0,1-1.47,1.66c-.72.75-1.56,1-2.18,0A14.33,14.33,0,0,0,271.82,265.09Zm62.36-178A12,12,0,0,1,335.3,89c.74,1.71,2.75,3.49,1.85,5.14-1,1.82-3.15,0-4.81,0a16.1,16.1,0,0,0-6.81,1.42c-2.22,1-4.43,2.19-7.09,1.75C320,92.05,326.68,86.38,331.52,86A2.67,2.67,0,0,1,334.18,87.12ZM273.3,56.7a101.49,101.49,0,0,0-21.22,11.84C256.86,60.4,264.37,57.26,273.3,56.7ZM249,59.76c-.07,2.26-1.63,3.15-2.49,4.4a39.29,39.29,0,0,0-4.19,7.24c-.75,1.88-1.89,2.57-3.72,1.3-.24-.17-.52-.29-.75-.47-5.17-4.08-10.71-4.39-16.57-1.68-.22.11-.54,0-1.44,0C228.66,63.59,238,60,249,59.76ZM271.83,110c-4.71,7.41-16,12.12-24.75,10.37-7.17-1.42-9.52-6.11-9.78-12.79-.05-1.16,1.3-3-.67-3.27-1.73-.2-2.08,1.86-2.23,3.3-.84,7.81,4.89,16.39,13.76,17.15a29.07,29.07,0,0,0,11-1,1.71,1.71,0,0,1,1.93.26c-1.75,3.74-4.14,6.92-8.16,8.59-1.82.76-3.88,1.17-5.63.31-3.81-1.89-8.32-2.29-11.58-5.38-.26-.25-.79-.21-1.12-.28-1,.74-.71,1.69-.58,2.52a17.49,17.49,0,0,1-2.41,11.51q-5.75,10-11.69,19.89c-1.51,2.51-2.2,2.4-4.23.13-2.86-3.2-3.23-6.85-2.19-10.79.45-1.72,1.08-3.38,1.6-5.08a3.42,3.42,0,0,0-1-4c-1.48-1.21-3-.85-4.56-.08-1.75.87-2.75,2.63-4.51,4-1.91-2.3-1.61-4.78-1.27-7.22a47,47,0,0,1,3.48-11.88c.74-1.75,1.24-3.38-1-4.51a2.3,2.3,0,0,1-1-2.73c.94-4.5,2.33-8.78,6.13-11.84,1.28,1.11,1.16,2.56,1.57,3.78,2,6,8,10.86,13.68,11.17a12.26,12.26,0,0,0,3.09-.15c1.29-.26,3-.58,2.83-2.24-.16-1.9-2-1.45-3.19-1.31-7.3.81-11.52-3.49-13.13-8.79-1.3-4.29-.36-6.53,3.56-8.82.9-.52,1.78-1,2.68-1.56a2.83,2.83,0,0,0-1.56-5.23c-1.92.11-3.83.24-5.75.26a13.39,13.39,0,0,1-8.18-3c-1.36-1-1.53-2.1-.25-3.29,5.64-5.29,11.66-10,19-12.88a7.59,7.59,0,0,1,7.17.75c4,2.4,7.19,5,8.9,9.87a57.88,57.88,0,0,1,3,12.33c.74,5.93,2,7,7.94,7.21a48.35,48.35,0,0,0,14.45-2c1.38-.36,3.12-1.27,3.9.57S273.34,107.62,271.83,110Zm5.2-18.3c-2.74,3-6.31,4.34-9.95,5.55a31.88,31.88,0,0,1-12.8,2c-.35-1.36.41-2,.93-2.65,9.65-12.17,21.36-21.65,36-27.28,2.74-1.05,5.66-1.68,8.5-2.49,1-.28,2-.49,3-.76.6-.17,1.18-.61,1.12-1.2-.08-.9-.88-1.08-1.66-1.05a30.08,30.08,0,0,0-7.41,1.3,72.37,72.37,0,0,0-21.83,10.65,104.44,104.44,0,0,0-20.41,19,8.67,8.67,0,0,0-.86,1.59c-2.47-5.6-.79-9.59,2.73-13,5.65-5.54,12.28-9.72,19.07-13.64,2.95-1.7,6.05-3.13,9.06-4.7a26.3,26.3,0,0,0,2.27-1.37,1,1,0,0,0,.45-1.14,1.06,1.06,0,0,0-1.4-.7,22,22,0,0,0-3,.87C269.58,66.9,258.94,72.28,250.34,81a16.48,16.48,0,0,1-1.31,1.2c-.47.37-1.05.75-1.61.4a1.42,1.42,0,0,1-.33-2A31.27,31.27,0,0,1,253.92,72a57.67,57.67,0,0,1,25-13.75c2.13-.56,4.37-.75,6.3-2a3.49,3.49,0,0,1,2.12-.42c12.05,1.29,23,5.18,32.21,13.4a5.14,5.14,0,0,1,.71,1.34c-2.11,1.14-3.93,2.71-6.53,1.35-1.31-.69-2.62-.06-3.86.36C297.56,76.38,286,81.93,277,91.69Zm3.8,11.33c-.26,0-.54-.18-1.1-.38.36-2,1.62-3.1,2.68-4.27,4.59-5,9.28-9.93,14.95-13.78C299,83.47,300.91,82.51,301,80a1.09,1.09,0,0,1,2-.56c1.58,2,2.92.58,4.19-.17a64.8,64.8,0,0,1,12.57-5.44c2.74-.92,4.87-.44,6.57,2,1.18,1.69,2.53,3.27,3.82,4.88s.87,2.55-1,3.24c-4.76,1.73-9.15,4-12.65,8.19.4-2.84.82-5.68,1.19-8.53a1.91,1.91,0,0,0-.63-2c-1-.63-1.69.07-2.27.72-2.47,2.74-4.94,5.48-7.34,8.29C300.41,98.72,291.09,101.88,280.83,103ZM268.92,250.28c10.62-13.3,20.54-27.09,28.61-42.13,8.77-16.35,14.28-33.63,15.23-52.33.37-7.41.73-14.73-.87-22a43.56,43.56,0,0,0-14.58-24.24c-.45-.39-.92-.75-1.34-1.17-1.73-1.71-1.7-2.07.29-3.18l.41-.19c5.51-2.84,5.55-2.88,9.68,1.64,9.86,10.79,15.42,23.1,14.94,38.13a132.63,132.63,0,0,1-11.05,49.42c-10.94,25.05-27.43,46.12-46.94,65-.57.54-1,1.43-2.43,1.13C263.62,256.9,266.28,253.6,268.92,250.28ZM146.6,344.83c1.12,3.27,2.06,6.54,3.91,9.43a19.87,19.87,0,0,0,2.75,3.44c.8.79,1.67.52,1.89-.66a18,18,0,0,0,.13-2.65,56.45,56.45,0,0,1,.29-6.64c2.79-17.58,9.89-22.4,24.93-26.55a6.47,6.47,0,0,1,.88-.15c3.25-.34,4.16.64,3.31,3.73-.5,1.85-1.18,3.65-1.82,5.47-1,2.75-1.31,5.46.44,8.06a2.8,2.8,0,0,1-.21,3.64c-5.14,6.66-10.24,13.34-15.77,19.92-.35-6.58,1-12.93,2.33-19.28s4.75-11.94,8.94-17.39a2.89,2.89,0,0,0-3.64,1.12,37.84,37.84,0,0,0-8.73,15.74c-2.13,8.15-4.1,16.34-4.1,24.85a7.18,7.18,0,0,1-1,4.24L149.52,388C145.5,373.21,142.44,359.33,146.6,344.83Zm-5.73,7.23c.3-.76.26-1.79,1.53-2.22a8.09,8.09,0,0,1,0,4.23,62.48,62.48,0,0,0,.6,21.13q1.41,7.6,2.88,15.21a5.36,5.36,0,0,1-.3,3.88c-1.72,2.88-3.49,5.74-5.52,9.06-.93-1.76-.59-3.08-.58-4.31.08-8.56.26-17.1-.84-25.63A42.15,42.15,0,0,1,140.87,352.06Zm-16,97.05c10.19-27.51,24.75-52.61,42-76.25,12.28-16.84,25-33.35,38.4-49.3.82-1,1.35-2.33,3-2.7,1.69,2.45.51,4.3-1.17,6.15-7.35,8.1-14.24,16.58-21.1,25.1-10.52,13.06-18.94,27.48-27.79,41.64C148,410.17,137.73,426.57,129.4,444.1c-4.68,9.88-8.82,20-12.76,30.21A244,244,0,0,1,124.89,449.11Zm42,301.83c-1.11.29-1.46-.74-2-1.31-17.3-20-32.53-41.4-44-65.33a246.74,246.74,0,0,1-20.45-65.43,197.36,197.36,0,0,1-2.29-44.19,428.69,428.69,0,0,1,11.23-75.36c.57-2.44,1.25-4.86,1.9-7.29a4.5,4.5,0,0,1,.8-1.61c0,5.26-2.08,10.43-1.13,15.69,1.48.13,1.66-.61,1.72-1.35,1.26-14.81,6.47-28.49,12-42.06,8.23-20.05,19-38.76,30.56-57,7.36-11.62,14.65-23.29,22-34.91,8.26-13,18.22-24.77,28.16-36.52.84-1,1.57-2.17,3.24-2.62,1,1.49.42,3.05,0,4.52a35.75,35.75,0,0,1-4.85,10.42c-5.22,7.92-11.39,15.11-17.44,22.39-13,15.7-26,31.47-36.5,49.1-21,35.37-35.44,73.11-41.33,114-1.41,9.8-3.11,19.56-4.51,29.37-1.16,8.09-.44,16.25-.47,24.38a6.46,6.46,0,0,0,.28,1.74c.3,1.07.86,1.94,2.12,1.89a2.17,2.17,0,0,0,1.91-1.63,7.84,7.84,0,0,0,.38-2.16c.24-4.29.59-8.57.64-12.85a182.23,182.23,0,0,1,4.67-37.34,235.63,235.63,0,0,1,16.42-49.6,538.53,538.53,0,0,1,27.79-52c5.74-9.37,12.8-17.76,19.1-26.71,6.13-8.7,12.43-17.29,18.62-26,.64-.89,1.77-1.68.76-4.19-7.14,8.12-12.84,16.53-19,24.6s-12.5,16.14-18.52,24.38A226.06,226.06,0,0,0,143,451.55c-4.87,8.91-9.49,18-14.22,26.95l-.89-.39c1-2.57,1.87-5.16,2.87-7.72,10.48-26.89,23.81-52.22,41.6-75,9.36-12,19.32-23.57,28.78-35.51A244,244,0,0,0,219.7,332.8a47.2,47.2,0,0,0,5.94-15.69,16.72,16.72,0,0,0,.35-3.51c0-.84-.22-1.91-1.39-1.87-.92,0-1.07.93-1.15,1.65-.62,5.74-3.33,10.69-5.89,15.69a2.68,2.68,0,0,1-1.8,1.79c-.18-9.3-3.46-17.9-5-26.84a25.11,25.11,0,0,1,3.69-18.71,14.42,14.42,0,0,1,5.08-4.86c.76-.41,1.59-1,2.43-.34.65.52.42,1.36.32,2.09-.37,2.63-.79,5.26-1.14,7.9a19.69,19.69,0,0,0,2.75,13.62c.53.85,1,1.95,2.33,1.62,1-.26,1.15-1.26,1.36-2.11.84-3.45,1.51-7,2.5-10.35,1.88-6.42,4.29-12.62,8.51-17.93a19.17,19.17,0,0,1,13.26-7.25c2.88-.34,3.46.35,2.93,3.27-1.95,10.79-4.59,21.35-9.5,31.3a342.11,342.11,0,0,1-30.85,51.27c-.76,1-1.85,2-1.77,3.7,1.65.49,2.28-.87,3-1.77a215.86,215.86,0,0,0,18.86-26.31,341.45,341.45,0,0,0,16.84-31.74c3.66-7.68,5.39-15.95,7.08-24.22,1.24-6,3.3-7,8.8-4.19,3.55,1.83,5.28,4.67,4.84,8.66-.35,3.23-.89,6.44-1.33,9.67s-.92,6.48.66,9.57c.89,1.75,0,3.13-.82,4.55a118.3,118.3,0,0,1-8.48,13c-4.36,5.79-8.63,11.65-13.36,17.16-.85,1-1.9,1.9-1.81,3.44,1.18,1,1.89-.05,2.6-.69a65.9,65.9,0,0,0,7.72-8.56c5.87-7.61,11.65-15.3,17.42-23,1-1.3,1.73-2.81,3.33-3.45,3.75-1.49,5.71-4.58,7.14-8.07,1.62-4,3.28-7.95,4.56-12,1.92-6.12,5.75-9.76,12.15-10.8,3-.49,6-1.34,9.05-1.55.59,1.6-.6,2.07-1.28,2.67a118.07,118.07,0,0,0-23.28,27.79,194.08,194.08,0,0,1-11.55,16.28c-.93,1.23-2.21,2.35-2.21,4.31,1.83.25,2.42-1.16,3.23-2a200.14,200.14,0,0,0,19.44-25.32c4-6.1,9.2-11.19,14.1-16.51a46.56,46.56,0,0,1,4.5-3.67c-1.26,4.3-2.7,7.26-5.07,9.75-1.32,1.4-2.64,2.8-3.94,4.21-.51.56-1,1.25-.58,2s1.29.51,2,.26c9.57-3.47,17.6-8.86,20.84-19,1.36-4.24,3.95-5.91,7.78-6.77a101.18,101.18,0,0,1,13.17-1.91c4.41-.41,8.86-.25,13.28-.8,1.08-.14,2.37-.47,3.38.68-.13,1.74-1.73,2.23-2.81,3.08-6.64,5.23-13.73,9.79-20.82,14.36-19.51,12.6-39,25.24-57.45,39.39-1.63,1.25-3.82,2.08-4.6,4.48,1.82.53,2.75-.59,3.79-1.29C305.31,303.77,328,288.93,351,274.76c5.18-3.18,9.89-7,14.81-10.55,1.16-.84,2.16-2,4.13-2.15.6,5.52-.61,10.49-4.21,14.4-6.49,7.05-13.83,12.77-23.89,14.18-10.63,1.48-19.74,6.9-28.76,12.32-.6.35-1.29.79-1.18,1.72.69,1.06,1.58.46,2.33.17,3.17-1.22,6.36-2.42,9.46-3.82a61.3,61.3,0,0,1,24.13-5.23c-11.81,4.6-24.41,6.94-36,12.27a362.87,362.87,0,0,0-33.59,18.08c-17.44,10.41-28.61,18.66-30.83,22.78,1.59.35,2.54-.69,3.54-1.41a358.65,358.65,0,0,1,45.83-27.89c11.34-5.84,23-10.92,35.47-13.81a148.69,148.69,0,0,0,21.5-7c1.35-.55,2.72-1,4.48-1.67-.22,1.66-1.27,2.25-2.08,2.94-6.65,5.71-14.51,8.85-22.83,11.4-13.84,4.24-27.71,8.61-40.56,15.43a505,505,0,0,0-55.1,34c-1.15.81-2.68,1.35-3.05,3.28,1.89.86,3-.68,4.16-1.46,10.22-6.81,20.61-13.35,31.24-19.51,10.87-6.3,21.56-13,33.37-17.48,8.58-3.24,17.33-6,26-9a13,13,0,0,1,9.93.23,53.94,53.94,0,0,0,7,2.11,1.17,1.17,0,0,1-.81,1.21c-9.26,3.5-18.1,8.06-27.68,10.8A232.21,232.21,0,0,0,280.43,346c-15,7.29-30,14.7-44.28,23.5-1.83,1.13-3.88,2.05-5.35,4.15,1.77.93,2.72-.28,3.72-.86,10.07-5.94,20.32-11.56,30.79-16.75s21.38-10.15,32.4-14.5c3.3-1.3,6.64-2.52,10.05-3.49a273.75,273.75,0,0,0,34.59-12.58c2-.85,4-1.61,6.84-2.76A23.08,23.08,0,0,1,337,334.4a30.06,30.06,0,0,1-8.58,2.17A55.21,55.21,0,0,0,314.2,340c-5.38,2.14-9.87,5.42-12.72,10.54a7.44,7.44,0,0,1-5.17,3.72,244,244,0,0,0-45,16.21,256.29,256.29,0,0,0-24.09,13.28c-.85.53-1.84,1-2,2.27,1.48,1,2.57-.16,3.65-.7,5.31-2.62,10.64-5.21,15.84-8,16.53-8.95,34.15-14.86,52.45-18.84,9.24-2,18.41-4.37,27.73-6.07,5.22-.95,9.42-.06,13.4,3.68a84.4,84.4,0,0,0,14.9,11.15c.85.5,2,1,1.79,2.25s-1.53,1.36-2.51,1.48a72.36,72.36,0,0,1-16.38-.15c-5.73-.63-11.44-1.47-17.18-1.95a98.68,98.68,0,0,0-19.05.55c-16.83,1.83-33.32,5.07-49.07,11.52a128.06,128.06,0,0,0-19.37,9.82c-1.18.73-2.62,1.24-3.09,2.92,1.71.7,2.73-.37,3.83-1A142.14,142.14,0,0,1,294.83,375c2.66-.13,5.3-.51,7.95-.73a101,101,0,0,1,22.11,1.05c9.79,1.34,19.54,3.27,29.45,1.7.59,1.52-.54,2.06-1.17,2.74-11.38,12.09-25.11,19.36-41.83,21-10.5,1-20-1-28.42-7.38-1.65-1.25-3.43-2.34-5-3.68-6.27-5.31-13.51-6.29-21.28-4.85a73.15,73.15,0,0,0-32.78,14.93c-2.6,2.08-5.47,2.76-8.55,3.28-10.2,1.73-19.71,5.08-27.93,11.65-6.7,5.35-10.85,12.1-11.8,20.61a35.45,35.45,0,0,1-7.76,18.54c-10.68,13.45-20.88,27.24-29.55,42.1-10.51,18-18.91,36.85-22.61,57.51a174.83,174.83,0,0,0-2.32,28.71c-.16,11.54,0,23.08.16,34.62,0,1.56-.76,4.28,1.61,4.23,1.84,0,1.13-2.67,1.26-4.19,1-11.64,1.24-23.32,1.78-35A176,176,0,0,1,146.67,493c8-12.45,16.73-24.41,25.87-36a38.86,38.86,0,0,0,8.67-20.53c.8-7.88,4.77-13.83,11.11-18.38,8.69-6.24,18.6-8.94,29-10a95.33,95.33,0,0,1,11.09-.14c1.13,0,2.61-.27,3.24.93.71,1.36-.75,2.07-1.47,2.89-4.3,4.89-8.66,9.72-13,14.59-23.36,26.39-45.46,53.78-65.3,82.93a352.3,352.3,0,0,0-25.56,43.62c-6,12.24-9.27,25.18-11,38.65a274.18,274.18,0,0,0-1.82,29.64c-.37,23.05,4.63,44.89,13.78,65.93a374.4,374.4,0,0,0,31.37,57.1c1.39,2.1,2.75,4.21,4.12,6.32C166.92,750.59,166.86,750.77,166.86,750.94ZM281.7,456.48c.81.78,1.66.08,2.41-.33,6.71-3.69,12.19-8.48,13.54-16.49.55-3.26,2.23-4.35,5.32-4.58s5.87-.76,8.7.52,3.26,2.69,1.55,5.14a22.63,22.63,0,0,1-2.61,3c-6.09,6.14-13.3,10.65-20.9,14.73-5.38,2.88-11,3.87-16.93,4.21-5.3.31-10.43,1.75-15.8,2,11.85-7.06,20.75-17.37,30.65-27.21,1,2.95,0,4.82-.71,6.69-1.25,3.49-3.28,6.61-5,9.89C281.57,454.81,280.89,455.7,281.7,456.48Zm-16.45,23.29a310.5,310.5,0,0,1,34.86-6.53c5.12-.64,10.25-1.34,15.55-.71-8.94,1.91-17.89,3.77-26.82,5.73-9.24,2-18.52,3.94-27.69,6.25-9,2.26-17.95,4.64-26.4,8.65.66,1.9,1.81,1.22,2.7,1q17.48-4.17,34.93-8.41c15.09-3.67,30.31-6.71,45.52-9.81a24.26,24.26,0,0,1,7.67-.36c-.54,2.58-2.18,3.88-3.71,5.17a58.73,58.73,0,0,1-11.19,7.15c-3.36,1.74-6.91,1.57-10.43,1.23-11.42-1.11-22.72.25-34,1.61-2.49.3-5,.73-7.44,1.15-.69.12-1.49.28-1.54,1.57,1.51,1,3.29.57,4.93.4,8.71-.95,17.44-.69,26.16-.61,4.13,0,8.26.51,12.39.75a6,6,0,0,1,4,1.71,56.71,56.71,0,0,1,6.64,7.13c2.14,2.9,2.14,4.71-.13,7.59a25.87,25.87,0,0,1-14,8.91,95.25,95.25,0,0,1-19.73,2.77c-13.12.78-26.3.94-39.27,3.52a96.52,96.52,0,0,0-29.1,10.43c-2.12,1.21-4.34,2.36-5.87,4.48,1.59,1.2,2.55.11,3.53-.32a191.76,191.76,0,0,1,26.91-9c3.29-.89,3.33-.76,3.45,2.62.14,4.09,2,6.33,6.05,6.91,2.62.38,5.31.23,8,.39,6.3.4,12.25,1.92,17.48,5.67,4.65,3.32,6.57,7.63,5.68,13.43A35.87,35.87,0,0,1,268.47,575a81.43,81.43,0,0,1-5.5,6.95c-8.85,10.6-20.37,13-33.29,10.86A94.13,94.13,0,0,1,204,584.48c-4.55-2.2-7.59-6.08-10.54-10a68,68,0,0,1-9.17-16.16c-.57-1.44-.89-3.11-2.83-3.76,2.53,11,6.9,21.17,14.48,29.91-8.71,2.11-17.69-1.47-21.8-8.41-2.11-3.56-4.07-7.23-6.37-10.66-7.94-11.79-19.43-11.51-26.93.59a64.23,64.23,0,0,0-7.17,17.62,185.92,185.92,0,0,0-5.28,31c-.61,6.77-1.34,13.54-1.55,20.33A140.37,140.37,0,0,0,132,677.1c.55,2,1.1,3.94,1.86,6.68a6.2,6.2,0,0,1-2.08-3.34C123,659.15,119.76,637,120.58,614c.42-11.7,1.24-23.32,4.34-34.67,6.55-24,19.45-43.9,38-60.34a238.62,238.62,0,0,1,52.45-35.38c16.77-8.31,34.19-14.83,52.86-17.45,7.17-1,14.4-1.5,21.54-2.83,17.68-3.29,34.24-9.2,48.82-20a11.33,11.33,0,0,1,1.55-.8c.9,3.45.44,6.78.29,10.07a37.91,37.91,0,0,1-.77,5.26,7.37,7.37,0,0,1-6.41,6.45A82.51,82.51,0,0,1,321.38,466c-9.25.22-18.17,2.39-27.1,4.28-10,2.11-19.79,5-29.66,7.52-1.09.29-2.36.36-3,1.86C262.79,480.72,264.11,480,265.25,479.77ZM160.49,724.34c-.8-.17-1.19-.14-1.28-.29-8.45-14.62-16-29.62-20.91-45.89A136.37,136.37,0,0,1,132.89,637,272.88,272.88,0,0,1,137,594.68a5,5,0,0,1,1-2.91A462,462,0,0,0,160.49,724.34ZM337,440.87a73.64,73.64,0,0,1-13.39,8.55,129.19,129.19,0,0,1-26.15,9.42,2.62,2.62,0,0,1-2.19,0c.52-1.24,1.83-1.37,2.79-1.95,7.76-4.63,15.15-9.71,20.6-17.1,1.76-2.39,4.37-2.92,7-3.16,3.73-.34,7.34.54,10.88,1.55C338.4,438.67,338.55,439.6,337,440.87Zm-53.83-3.69c-2.57,2.85-5.15,5.7-7.77,8.52A116.62,116.62,0,0,1,259.62,460c-2.18,1.62-5,2.56-6,5.61-.31,1-1.73,1-2.71,1.28-29.63,8.3-56,22.93-80.13,41.72-1.05.82-2.07,1.67-3.09,2.52s-1.94,1.67-2.91,2.51c4-5.54,9.2-9.91,14.22-14.39a235.3,235.3,0,0,1,46.87-32.58,21.57,21.57,0,0,1,8.75-2.86,13.72,13.72,0,0,0,9.33-4.63c1.69-1.85,3.34-3.75,5-5.67,7.56-8.87,16.49-15.66,28.1-18.29a37.07,37.07,0,0,1,4.83-.61c.71-.06,1.55-.08,2,.67S283.65,436.65,283.17,437.18Zm-42.35,10.36c-4.18,7.25-9.54,13.2-17.29,17.22-22.62,11.74-42.47,27.3-60.26,45.5-5.27,5.39-10.09,11.17-15.07,17a230.41,230.41,0,0,1,14.89-23.43,872.16,872.16,0,0,1,61.66-77.23c4-4.53,8-9.09,12.12-13.55,2.14-2.34,2.92-2.32,4.08.45C245.69,424.8,247.3,436.28,240.82,447.54ZM772.1,980.65a24.3,24.3,0,0,0-4.93,13.59c-.08,3.89-2.09,5.32-5.27,6.56a456.8,456.8,0,0,1-69.58,21.07,469.33,469.33,0,0,1-55.23,8.33,461.08,461.08,0,0,1-63.39,1.29,428.71,428.71,0,0,1-61.18-7.24A450.28,450.28,0,0,1,157,679.34a458.33,458.33,0,0,1-8.88-58.28c-1.46-16.53-1.8-33.07-1.61-49.64,0-2.43.27-4.64,2.33-6.39,3.7-3.16,7.51-3.26,11.17,0a23.56,23.56,0,0,1,4.63,5.92c1.28,2.16,2.66,4.29,3.73,6.55,4.33,9.1,12.3,12.3,21.53,13.39a32.15,32.15,0,0,0,7.53,0,23.62,23.62,0,0,1,12.06,2.08,79.68,79.68,0,0,0,25.33,6.15c10.35.69,19.62-1.69,27.54-8.67A58,58,0,0,0,277.6,570a32,32,0,0,0,2.65-10.27c.54-6.8-1.59-12.52-7.26-16.67a38.41,38.41,0,0,0-22.32-7.59c-1.77,0-3.55,0-5.32-.11a1.74,1.74,0,0,1-1.73-1.14,1.88,1.88,0,0,1,.65-2,10.11,10.11,0,0,1,6.47-2.57c5-.35,10-.87,15.05-1a183.71,183.71,0,0,0,27.8-2.53,39.68,39.68,0,0,0,16-6.29,24,24,0,0,0,7.61-7.94c2.48-4.55,2.08-8.29-1.24-12.29-4.6-5.55-4.62-5.59,1.61-8.93a40.08,40.08,0,0,0,12.24-10.12c2.11-2.6,4.41-5.31,3.63-9.09-.28-1.42.73-1.46,1.5-1.64,6.92-1.6,9.82-6.37,10.78-13,.87-6.05.58-12.1.55-18.16a4.37,4.37,0,0,0-3.12-4.4c-7-2.39-14.13-4.63-21.67-2.56-2.27.62-4.23.72-6.3-.67a12.6,12.6,0,0,0-7.21-1.88,57.8,57.8,0,0,0-13.63,1.47,5,5,0,0,1-3.82-.12c-4.33-2.25-8.92-1.91-13.45-1a50.75,50.75,0,0,0-22.59,10.8l-5.61,4.55c3.17-11.75,1.94-22.12-2-32.31-2.35-6.07-6.36-9.85-13.1-10.28a3.72,3.72,0,0,1-1.14-.47c-.31-1.52,1-1.79,1.75-2.27a68.17,68.17,0,0,1,23.07-8.85c6.38-1.17,12.34-.6,17.5,3.94a64,64,0,0,0,6.79,5c11,7.38,23,8.76,35.72,6.37a71.8,71.8,0,0,0,39.15-21.21,28.4,28.4,0,0,0,5.25-7.12c2.55-5.18,1.67-9.39-2.84-13-2.19-1.75-4.68-3.11-6.92-4.81-4.13-3.12-8.36-6.14-12.19-9.6a14.57,14.57,0,0,0-12.21-3.89c-4.56.54-9.06,1.36-13.55,2.28a6,6,0,0,1-3.5.09,19,19,0,0,1,7.23-3.94,71.44,71.44,0,0,1,11.7-2.5c13.49-2,22.74-9.31,27.3-22.3a22.05,22.05,0,0,0,.86-3c1-5.09.5-5.54-4.65-4.48a7.59,7.59,0,0,1-4.58,0c.67-1.38,2.07-1.61,3.12-2.23A54,54,0,0,0,368.69,295a36.07,36.07,0,0,0,2.18-3.34c2.44-4.43,2-6.23-2.3-9,.41-1.48,1.68-2.37,2.5-3.57a27.35,27.35,0,0,0,4.61-21.5A5.1,5.1,0,0,0,371,253c-4.57-.79-9.16-.58-13.73-.44A117.91,117.91,0,0,0,334,255.22c-6.33,1.48-9,2.81-11.23,7-3.59-4.7-8.31-.63-12.88-1.71,9.9-7.75,19.4-15.43,31.54-18.84,12-3.35,24.13-5.89,36-9.69a43.74,43.74,0,0,0,21.2-14.66c3.56-4.42,6.35-9.21,7.47-14.92a27.73,27.73,0,0,0-.56-11.86,8.57,8.57,0,0,0-6.44-6.62c-3.16-.94-6.39-.8-9.91-1.74,2.4-1.27,4.76-2.6,7.19-3.81a444.26,444.26,0,0,1,171.58-45.89,504.63,504.63,0,0,1,50.56-.43,418.37,418.37,0,0,1,52.45,5.57,450.5,450.5,0,0,1,353.05,302,453.51,453.51,0,0,1,18.1,76.32c4.41,29.52,5.26,59.2,4.17,88.95a377.61,377.61,0,0,1-3.52,38c-.06.44-.13.88-.23,1.31-.65,2.68-1.59,3-3.48,1.14a21.78,21.78,0,0,1-4-5.84c-1.66-3.31-3.33-6.61-4.93-10a18,18,0,0,0-7.09-7.72,34.08,34.08,0,0,0-20.31-5.18,17.08,17.08,0,0,1-9.29-1.92,86.77,86.77,0,0,0-25.1-8.59c-11.49-1.89-22.05-.18-31.22,7.63-6.6,5.63-12.39,11.82-16.06,19.83a28.44,28.44,0,0,0-2.6,13.79,15.19,15.19,0,0,0,4.56,10.3c6.13,6.05,13.61,9.27,22,10.45,2.35.32,4.72.47,7,.88,1.52.27,1.85,1.49.78,2.6a8.72,8.72,0,0,1-6.49,2.39c-5.18,0-10.36,0-15.53,0-9.76,0-19.53-.64-29.25.76-6.55.94-12.66,2.94-18,6.93A21.6,21.6,0,0,0,879.1,686c-3.71,4.93-3.71,8.62-.28,13.81,1.19,1.8,3.92,3.22,3.24,5.44-.58,1.86-3.46,1.91-5.28,2.84-4.77,2.43-9.41,5.08-13,9.11-2.33,2.6-5,5.16-4.72,9.16.07,1.18-.82,1.48-1.71,1.61-7.16,1.07-10.08,6-11.42,12.42A114.89,114.89,0,0,0,844,757.11c-.18,3,.93,5.07,3.89,6.18,7,2.6,13.92,5.11,21.57,3.45a5.6,5.6,0,0,1,4.64.93,15.57,15.57,0,0,0,9.67,2.64c4.13,0,8.29.29,12.38-.56a3.49,3.49,0,0,1,2.56.36c5.66,3.31,11.65,2.75,17.68,1.5a52.79,52.79,0,0,0,20.45-9.29l3.78-2.77a.9.9,0,0,1,.47,1.28c-3.51,10.23-2.61,20.38.46,30.52,1.83,6,5.49,10,12,11a7.75,7.75,0,0,1,1.65.59c.12,0,.18.23.33.44-.27.29-.5.7-.86.89a66.15,66.15,0,0,1-29.2,8.23A15.69,15.69,0,0,1,914,808.58c-2.1-1.87-4.32-3.59-6.46-5.41-10-8.53-21.63-11.48-34.65-10.48-15.32,1.18-28.6,7-40.46,16.43a32.74,32.74,0,0,0-7.37,7.63c-3.87,6-3.33,10.62,1.49,14.58,6.73,5.55,13.43,11.13,19.64,17.28a11.91,11.91,0,0,0,9.45,3.1c4.43-.32,8.83-.86,13.24-1.3,1.28-.13,2.56-.62,4.21.13-4.11,3.11-8.74,3.81-13.37,4.45-2.93.4-5.89.59-8.82.93a31.58,31.58,0,0,0-26.82,23.33,13.27,13.27,0,0,0-.45,2.17c-.2,1.84.51,2.88,2.52,2.57,1.31-.2,2.61-.52,3.92-.7.82-.12,1.75-.56,2.45.54-.62,1.53-2.25,1.71-3.47,2.38-6.81,3.73-13,8.18-17.9,14.32-.64.81-1.28,1.63-1.85,2.49-2.8,4.28-2.44,6.2,1.69,9.08-.26,1.25-1.35,1.88-2.12,2.73-5.51,6.09-7.46,13.31-6.76,21.34.35,4,1,5,5.06,5.48,8.94,1.16,17.93,2.09,27,1.24,3.67-.34,7.39-.3,11-1.21,3.32-.83,6.64-1.58,9-4.41.36-.44.92-1.16,1.41-.54,2.13,2.69,4.92,1.15,7.45,1.33,1.26.08,2.61-.43,3.8.46-.38,1.38-1.63,1.71-2.54,2.38a85.58,85.58,0,0,1-40.72,16.29A213.25,213.25,0,0,0,797,962.54C786.25,965.27,778.36,971.83,772.1,980.65Zm40.29,60.77c1.18-4.47,4.86-7.62,6.63-12.05-2-.44-2.64.87-3.47,1.77a111.33,111.33,0,0,0-9.62,12.74,31.77,31.77,0,0,1-7.27,7.72c-2.13,1.56-2.78,1.42-4.43-.59-2.13-2.59-2.93-5.46-1.68-8.68,3-7.66,6.53-14.86,13.43-19.93,3.45-2.53,6.54-5.54,9.78-8.36a2.87,2.87,0,0,0,1.45-2.71c-4.16.46-7.17,3.51-11.16,4.24l9.94-7.06c2.65-1.89,5.29-3.79,7.9-5.73.59-.43,1.16-1.07.55-1.84-.41-.52-1.09-.34-1.63-.09-.8.38-1.59.79-2.35,1.24-12.27,7.28-23.78,15.51-33.21,26.36a9.32,9.32,0,0,1-1.24,1.27c-1.4,1.1-2.27.82-3-.91-1.33-3.06-.21-7.72,2.65-10.07a57.73,57.73,0,0,1,6.16-4.33c12.66-7.93,25-16.37,38.08-23.61,1.63-.91,3.41-1.75,4.31-3.89-1.59-1.22-2.85-.1-4,.49-9.75,5-19.75,9.41-29.74,13.88-7,3.11-14.23,3-21.71,2.29,9.28-4.83,18.55-9.51,27.62-14.54s18.48-9.57,26.19-18c-2.71-.34-3.83,1-5.11,1.78-15.29,9.36-31,17.84-47.69,24.5-1.87.75-4.14,2.61-5.76,1.31-1.94-1.54-1-4.44-.63-6.71.75-5,3.8-8.9,7-12.63,6.5-7.58,15.17-11,24.68-12.85,9-1.72,18-3.53,27-5a72.64,72.64,0,0,0,24.82-9.18c4.21-2.46,8.37-5,12.35-7.84,1-.72,1.94-1.76,3.95-1.83a189.43,189.43,0,0,0-13.34,15.37c-14.34,18.22-26.44,37.79-35.13,59.35a65.85,65.85,0,0,0-2.81,8.41C820.32,1031.93,816.37,1036.66,812.39,1041.42Zm11.09,46.43a60,60,0,0,1-2.18-13.1c-.76-16.36.57-32.5,5.41-48.24.68-2.21,1.69-4.36.67-6.87-.49-1.22.47-2.56,1-3.78a243.36,243.36,0,0,1,37.85-61.3c4.17-5,8.63-9.74,13-14.53a29.55,29.55,0,0,1,7-6,16.73,16.73,0,0,0,6.68-7.53c2.2-4.52,4.23-9.12,6.42-13.64.87-1.8,1.66-3.76,4.87-5-1.33,6.24-2.42,11.56-3.63,16.86-.41,1.79-1.88,3-3.09,4.25-14.68,15.46-28.6,31.56-40.8,49.08-12,17.24-22,35.44-26.52,56.2a174.84,174.84,0,0,0-3.72,27.22,57.42,57.42,0,0,0,7.18,31.59c.63,1.13,1.68,2.1,1.65,3.55C830,1096.5,824.84,1092.76,823.48,1087.85Zm31.68,1.5c1.31,2,2.82,3.8,4.23,5.7,2.24,3,2.24,3-1,5.45a9.14,9.14,0,0,1-1.06.55c-3.16-6.42-8.66-7.21-14.9-5.71-2.59.62-4.2-.26-5.56-2.4-3.63-5.72-5.47-12-6.76-18.63-1.52-7.85-.32-15.61.36-23.4C832.92,1023,845,999.1,861,976.8a444.4,444.4,0,0,1,36-43.28c.81-.86,1.62-1.73,2.51-2.51s1.71-.89,2.25.15c2.29,4.44,6.44,6.7,11,9.16-3.9,3.5-7.55,6.66-11.08,10-22.37,20.87-40.39,44.7-50.24,74.08a128.07,128.07,0,0,0-6.31,33.9C844.5,1069.87,848.93,1079.93,855.16,1089.35Zm-24.61,18.25c-.82-1.68-1.9-3.32-1.85-5.26.36-.22.67-.54.84-.48a16.89,16.89,0,0,0,13.65-.85c1.48-.73,3.13-.63,5.52-.29-3.25,4.77-6.93,8-11.83,9.59C833.42,1111.46,832.16,1110.9,830.55,1107.6Zm58.18,36.64a72.79,72.79,0,0,0,24.2-11.41C909.12,1140.35,899.65,1144.94,888.73,1144.24Zm24.19-1.1c4.17-4,7.4-7.75,9.65-12.28.56-1.11,1.38-1.5,2.51-.72a12.32,12.32,0,0,1,1.09.75c5.24,4.79,11.11,5.81,18,2.54C939.75,1139.22,925.21,1143.56,912.92,1143.14Zm-17.6-51.76c6.86-9.53,19.11-11,27.43-8.06a9.28,9.28,0,0,1,6.51,8.68c.12,1.76,0,3.54-.06,5.31,0,.85-.39,2,.84,2.14,1,.12,1.52-.81,1.86-1.65a11,11,0,0,0,.84-5.2c-.72-8.48-6.9-14.35-15.46-14.76-3.34-.16-6.66.37-10.63.59,2.7-4.13,5.19-7.44,9.7-8.57a6.42,6.42,0,0,1,4.77.16c3.46,2,7.58,2.62,10.56,5.5.6.58,1.31,1.35,2.31.74a1.87,1.87,0,0,0,.66-2c-.69-5.75,2-10.29,5.11-14.73,3.71-5.35,7.36-10.74,11.1-16.06,1.69-2.39,2.09-2.31,3.8,0,2.56,3.44,3.52,7.11,1.8,11.23-.68,1.64-1.31,3.3-1.94,5s-.62,3.25.86,4.45,3,.8,4.59.09c1.77-.81,2.86-2.48,4.55-3.81,1.57,2.45,1.07,4.79.73,7.06-.64,4.29-2.39,8.22-4.25,12.09-.79,1.63-1.77,3.29.78,4.37a1.76,1.76,0,0,1,.88,2.28c-1.36,4.67-3,9.21-7.78,12.38a17.75,17.75,0,0,0-6.91-13.17,12.62,12.62,0,0,0-9-3.12,11.39,11.39,0,0,0-2.58.54,1.59,1.59,0,0,0-1.24,1.64,1.46,1.46,0,0,0,1.55,1.29c.88,0,1.77-.09,2.65,0a12.11,12.11,0,0,1,11.81,12.07c0,2.51-.87,4.64-3.33,5.79-1.2.57-2.41,1.12-3.63,1.66a2.53,2.53,0,0,0-1.71,3.17,2.83,2.83,0,0,0,2.74,2.46c1.47.07,2.95,0,4.43.06a13.87,13.87,0,0,1,8.93,3.43c1.45,1.2,1.59,2.34,0,3.6-5.34,4.25-10.91,8.14-17.32,10.64-4,1.59-7.76,1.2-11.19-1.7a20,20,0,0,1-6.46-9.13c-1.54-4.48-1.89-8.84-2.18-13.38-.33-5.16-1.67-6.49-6.79-6.88a51.12,51.12,0,0,0-15,.74c-1.32.29-3.15,1.39-3.91-.57S893.72,1093.6,895.32,1091.38Zm1.26,13.59a36.4,36.4,0,0,1,15.26-1.73c.58,1.6-.68,2.25-1.4,3-12.74,13.69-27.85,23.2-46.59,26.33-1.29.21-3.72-.32-3.54,1.62s2.45,1,3.77.88c10.88-.92,20.52-5.32,29.65-11a101.86,101.86,0,0,0,18-14.36,12.09,12.09,0,0,1,3.79-3.2c.92,4.39,0,7.84-2.89,10.85a49.21,49.21,0,0,1-9.84,7.51,138.64,138.64,0,0,1-21.41,10.65c-1.12.44-3.2.66-2.6,2.3s2.35.56,3.54.2c11.82-3.6,23.09-8.29,32.59-16.48a7.66,7.66,0,0,1,1.81-1.24,1.31,1.31,0,0,1,1.18.26,1.28,1.28,0,0,1,.27,1.17,14.83,14.83,0,0,1-1.71,2.56c-8.67,10.35-20.05,15.78-33.08,18.19a7.9,7.9,0,0,0-2.18.33c-4.23,2.25-8.35.78-12.43-.35a54.55,54.55,0,0,1-21.33-11.4c-1.2-1-2.67-1.89-3.14-3.84,1.77-1.09,3.71-2.13,5.7-1.26a7.48,7.48,0,0,0,5.17,0c12.8-3.18,24.59-8.4,34.41-17.47A17.51,17.51,0,0,1,896.58,1105Zm-15.47-7.08c2-.23,4.07-.35,7.08-.59-4.51,5-8.53,9.18-13.23,12.72-2.12,1.6-4.42,3-6.58,4.51-1.77,1.28-4.54,1.68-4.26,4.91,0,.61-1.62,1.44-2,.46-1.13-2.57-2.54-1.19-3.91-.58a65,65,0,0,1-11.21,4.14c-5.35,1.3-6.26,1-9.33-3.35-.93-1.33-1.81-2.7-2.68-4.08s-.5-2.34,1-2.68c4.82-1.12,8.92-3.63,13-7.07.49,3-.75,5.1-1.05,7.37-.13,1-.63,2.19.41,2.85s1.91-.32,2.64-1c2.13-2,4.32-4,6.31-6.22C863.68,1102.22,871.86,1099,881.11,1097.89Zm32.12-152.05c-.91,1.16-2,2.21-3,3.29a301.75,301.75,0,0,0-32,39.68A129.26,129.26,0,0,0,857,1048.29c-1.29,12.71.14,24.46,7.49,35.13a74.79,74.79,0,0,0,8.3,9.57c-.66.52-.85.77-1.11.86-8.51,2.88-6.38,4.34-12.42-3.63-5.6-7.4-9.56-15.6-10.89-24.93-.89-6.25,0-12.39.83-18.54,3.51-26,15-48.35,30.9-68.75a242.23,242.23,0,0,1,34-34.9c.44-.37.93-.69,2.16-1.59C915.43,943.8,914.12,944.7,913.23,945.84Zm123.71-80.14c-1.12-1.2-.83-2.46-1.2-3.49-.71-1.94-1.21-4-2.08-5.83-.79-1.68-1.65-4.37-3.57-4-2.22.44-1.22,3.23-1.4,5a43.12,43.12,0,0,1-3.36,13.27c-2.94,6.69-7.67,11.46-14.75,13.79a55.53,55.53,0,0,1-9.43,2.41c-3.87.55-4.87-.81-3.52-4.57.55-1.53,1.23-3,1.85-4.52,1.1-2.67,1.7-5.38.22-8.11a2.88,2.88,0,0,1,.42-3.65c5.7-6.38,11.37-12.77,17.58-19.75-.1,5.11-1.37,9.26-2.32,13.46a58,58,0,0,1-4.23,12.58c-1.9,3.93-4.76,7.26-8,11.14a4.4,4.4,0,0,0,4.25-1.64,36.62,36.62,0,0,0,10-16c2.45-7.75,4.89-15.53,5.35-23.73a5,5,0,0,1,.81-3c4.2-5.32,8.42-10.61,13.28-16.72C1039.55,837.39,1042.18,851.31,1036.94,865.7Zm10.13-48.35a121.77,121.77,0,0,0-.22,22.51c.55,7.94-1.75,15.24-6.13,22,.51-3,1-6,1.54-9,1.49-7.51.39-15-.26-22.46a48,48,0,0,0-.92-7.89,9.45,9.45,0,0,1,2.16-9A35.48,35.48,0,0,1,1048,808C1047.71,811.12,1047.42,814.24,1047.07,817.35Zm25.57-70.16a309.89,309.89,0,0,1-48,81.52Q1002,856.36,977.34,882.2c-.92,1-1.9,1.87-2.89,2.76-.17.15-.54.09-1,.16a4.18,4.18,0,0,1,.69-4.82c.68-.77,1.42-1.51,2.17-2.22a373.39,373.39,0,0,0,49.45-58c11-15.78,22.69-31.05,32.46-47.67,4.87-8.3,9.29-16.83,13.43-25.52.5-1,.73-2.26,1.86-3C1074,745.22,1073.05,746.18,1072.64,747.19Zm30.42-130.33a331.07,331.07,0,0,1-5.42,46.22,443.93,443.93,0,0,1-16.48,61.67,4.94,4.94,0,0,1-1.07,1.93c1.34-5.21,2.65-10.42,3.47-15.72.22-1.41.71-2.86-.67-3.93-1.23.56-1.1,1.56-1.24,2.38-2,12.25-6.83,23.53-12.07,34.66a274.21,274.21,0,0,1-20.29,35.9q-22.72,34-48,66.07c-7.57,9.69-16.53,18.14-25,27.08-.68.72-1.28,1.67-2.51,1.65-1.17-.78-.62-1.85-.37-2.77a36,36,0,0,1,6.85-12.84,194.76,194.76,0,0,1,13.79-15.63c11.93-12.34,23.93-24.62,34.62-38.07,17.22-21.68,30.92-45.46,42-70.78,9-20.43,14.73-41.82,19.4-63.55,1.68-7.81,4-15.48,4.9-23.44.66-6.17,1-12.38,1.32-18.58.1-1.69.42-4.12-2-4.27-2.6-.16-2.54,2.39-2.77,4.25-1.25,10.12-1.81,20.34-4,30.34a268.54,268.54,0,0,1-17.63,52.93c-4.55,10.19-10.45,19.54-16,29.13-9,15.52-18.43,30.77-30,44.46-10.79,12.76-21.25,25.8-32.22,38.41-1.2,1.38-2.79,2.59-3.07,5,2.61-.31,3.68-2.2,5-3.64,5.27-6,10.44-12.08,15.69-18.1,7-8,14.25-15.85,21-24,9.25-11.19,17.19-23.33,24.67-35.77a140.25,140.25,0,0,1,10.39-15.43c-1.88,4.11-3.67,8.28-5.65,12.34-13.73,28.1-30.6,54-52.49,76.54-8.14,8.38-16.26,16.8-24,25.58-8.29,9.44-16.52,19-22.95,29.86a41.21,41.21,0,0,0-4.88,12.8,4.51,4.51,0,0,0-.07,3,1.53,1.53,0,0,0,.92.82,1.26,1.26,0,0,0,1-.61,29.61,29.61,0,0,0,.87-3,45.44,45.44,0,0,1,8.75-16.08c-1.2,9.65,1.61,18.26,2.74,27.07A26.25,26.25,0,0,1,967,917.17c-2.17,4-5,7.29-10,8.34-.71-2.09.21-3.87.6-5.63a44.6,44.6,0,0,0,1.35-11,17,17,0,0,0-1.9-7.24c-.52-1-1-2.39-2.43-2.22-1.2.15-1.34,1.43-1.63,2.42s-.53,2-.83,3a73,73,0,0,1-9.71,21.31,20.82,20.82,0,0,1-16,9.21c-2.82.27-3.57-.39-2.84-3.27,2.28-9,4.71-18.06,9.25-26.3a314.23,314.23,0,0,1,35.53-51.93c1.21-1.44,2.63-2.78,3.38-4.86-1.81-.74-2.58.57-3.39,1.4a187.44,187.44,0,0,0-13.7,15.71c-9.66,12.22-17.81,25.44-25.5,39-4.44,7.79-6.83,16.35-9.24,24.9-1.53,5.43-3.08,6-8.16,3.29-4.19-2.27-5.68-5.19-4.84-9.88.72-3.92,1.56-7.83,2.43-11.73a9.64,9.64,0,0,0-.24-6.1,4.76,4.76,0,0,1,.7-5,110.6,110.6,0,0,1,9-12.09c5.2-5.87,10.16-11.95,15.7-17.51.71-.71,1.6-1.38,1.37-2.87-2-.47-3.1,1.15-4.32,2.23-5.89,5.21-10.9,11.25-16.05,17.16-3.6,4.13-7.07,8.36-10.59,12.55a4.74,4.74,0,0,1-2.42,1.85c-3.69.87-5.7,3.63-7.31,6.67-1.86,3.52-3.43,7.2-5.15,10.8-.9,1.87-1.85,3.7-2.81,5.54a10.13,10.13,0,0,1-7.24,5.33,112.24,112.24,0,0,1-13.08,1.78c-.61-1.35.46-1.7,1.07-2.15a106.17,106.17,0,0,0,24-24.12c4.7-6.64,10.12-12.73,15.4-18.92.73-.86,1.88-1.54,1.61-3.22-1.58-.39-2.27,1-3.14,1.77-7.92,7.4-14.77,15.74-21.47,24.23a112.72,112.72,0,0,1-18.55,18c0-3.11.82-4.95,3.53-7.72,1.65-1.7,3.42-3.27,5.11-4.93.61-.6,1.41-1.3.74-2.26-.51-.74-1.36-.35-2-.15-9.94,2.92-18.16,8.06-22.26,18.07a8.21,8.21,0,0,1-6.86,5.42c-6.61,1.2-13.27.84-19.91.89-3.79,0-7.58-.14-12-.23,1.61-2.24,3.36-3,4.9-4,8.59-5.54,17.61-10.32,26.52-15.3,19-10.61,38.05-21.08,56.07-33.31,1.25-.84,2.9-1.37,3.38-3.16-1.54-.76-2.43.28-3.37.83-24.42,13.93-49,27.57-73.84,40.7-4.44,2.35-8.57,5.27-12.84,7.92-1,.62-2,1.31-3,1.85-1.3.67-2,.1-2-1.29a10.12,10.12,0,0,1,.2-2.2c.9-4,2.39-7.69,5.42-10.5,6.84-6.33,14.38-11.4,24.08-12.11,10.75-.78,20.18-5.48,29.64-10.06a6,6,0,0,0,1.64-1.42c.14-.14,0-.53,0-1.37-11.42,2.78-22.18,8.65-34.42,6.76,11.81-3.7,24.25-5.12,35.85-9.66,11.87-4.65,23.36-10.07,34.71-15.82,17.33-8.77,29.07-16.24,31.61-20.21-2.29-.41-3.66,1.2-5.16,2.13a379.16,379.16,0,0,1-44.92,23.2c-12.46,5.55-25.31,9.94-38.86,12.13a141.56,141.56,0,0,0-22.33,5.74c-.94.31-1.85,1-3,.59-.22-1.34,1-1.62,1.71-2.17,7.35-5.61,15.89-8.14,24.79-10.22,17.42-4.08,34.68-8.84,50.8-16.93,15.61-7.83,31.17-15.75,46.1-24.82,1.58-1,3.44-1.65,4.54-3.62-1.82-1.17-2.92.18-4,.82-12.35,7-25.09,13.31-37.66,19.92-17.44,9.18-36,14.92-55,19.49-4.16,1-8.09,1.19-12-1-2-1.11-4.37-1.56-7.52-2.64,9.71-2.71,18-6.77,26.94-8.65,17.75-3.73,34.66-10,51.39-16.81,12.88-5.26,25.6-10.85,37.93-17.31,1.18-.62,2.31-1.33,3.42-2.05a1.12,1.12,0,0,0,.39-1.42c-1.78-.37-3.2.86-4.68,1.61a448.08,448.08,0,0,1-60.24,24.89c-6.75,2.24-13.63,3.94-20.56,5.52A239.91,239.91,0,0,0,841,871c-2.06.73-4.09,1.61-6.22,1.65-1-1.19-.08-1.82.44-2.43a24.24,24.24,0,0,1,16.49-8.59c4.56-.47,9.16-.65,13.63-1.74,7.23-1.77,13.76-4.65,17.77-11.42,1.21-2,3.28-2.34,5.33-2.71a240.51,240.51,0,0,0,66.25-22.2,33.36,33.36,0,0,0,7-4.2c-1.77-1.45-3.06-.36-4.27.14-5.45,2.29-10.92,4.57-16.32,7-17.41,7.81-35.67,12.52-54.52,15.21-10,1.42-19.82,3.36-29.86,4.22-2.83.24-5.38-.1-7.41-2.08a200.08,200.08,0,0,0-18.75-16.28c-.2-.15-.26-.5-.4-.79.27-1.37,1.45-1.34,2.42-1.4a57.12,57.12,0,0,1,12.39.47c8.61,1.37,17.12,3.33,25.81,4.27a97.14,97.14,0,0,0,13.74.45c15-.5,29.79-2.09,44.28-6.13a134.43,134.43,0,0,0,26.78-10.57c1.11-.59,2.58-.85,3-2.61-1.6-.85-2.83.25-4.06.81a145.91,145.91,0,0,1-37.66,11.5c-7.77,1.24-15.6,1.29-23.43,1.65a147.36,147.36,0,0,1-40.9-4.1,75.67,75.67,0,0,0-18.9-2.26,1.46,1.46,0,0,1-1.56-.75c.14-1.61,1.56-2.37,2.62-3.27,14.55-12.49,31.31-18.18,50.48-16,7.27.82,13.49,4.2,19,8.9,1.58,1.34,3.27,2.57,4.73,4,6.1,6.14,13.6,7.33,21.74,6.23a73.69,73.69,0,0,0,32.88-12.47,14.78,14.78,0,0,1,7.39-2.53c11.63-1.16,22.69-4,32.13-11.43,5.31-4.21,9.33-9.33,10.45-16,1.66-9.83,6.93-17.34,13.49-24.43a292.86,292.86,0,0,0,34.92-45.26c9.27-15.08,16.87-30.91,20.82-48.28a188.41,188.41,0,0,0,3.8-25.88c1-11.93,1.6-23.89,2.36-35.84a5.94,5.94,0,0,0,0-1.33c-.15-1,0-2.33-1.4-2.32-1.08,0-1.17,1.18-1.29,2-.86,6.3-2,12.58-2.48,18.91a326.39,326.39,0,0,1-6.78,43.36c-3.92,18.16-12.3,34.48-22.26,50a300.94,300.94,0,0,1-29.85,38.56c-2.58,2.86-5.13,5.73-7.65,8.64-4.16,4.78-7.2,10.21-8.18,16.5-1.78,11.29-8.73,18.12-18.75,22.34-10.58,4.47-21.71,5.54-33.08,4.65a1.67,1.67,0,0,1-.44-.06c-1.48-.48-3.69,0-4.21-1.8-.44-1.54,1.42-2.44,2.44-3.43,13-12.57,25.83-25.23,38.23-38.35,22.17-23.46,43.46-47.68,61.74-74.36,9.13-13.31,17.89-26.88,22.44-42.63a217.8,217.8,0,0,0,7.61-42.72,156.94,156.94,0,0,0-2.52-45c-3.46-16.59-9.43-32.35-16.27-47.8a412.2,412.2,0,0,0-19.83-38.69c-.65-1.12-1.27-2.27-2.25-4a6.44,6.44,0,0,1,2.91,2.71c15.69,20.58,28.86,42.62,38.56,66.65a238.33,238.33,0,0,1,15.86,64C1102.42,600,1103.48,608.42,1103.06,616.86Z"/></svg>